<mxfile host="Electron" agent="Mozilla/5.0 (X11; Linux x86_64) AppleWebKit/537.36 (KHTML, like Gecko) draw.io/26.0.3 Chrome/130.0.6723.137 Electron/33.2.1 Safari/537.36" version="26.0.3">
  <diagram name="Page-1" id="QaaNRkdTFzj3QSEMWY4U">
    <mxGraphModel dx="691" dy="401" grid="1" gridSize="10" guides="1" tooltips="1" connect="1" arrows="1" fold="1" page="1" pageScale="1" pageWidth="827" pageHeight="1169" math="0" shadow="0">
      <root>
        <mxCell id="0" />
        <mxCell id="1" parent="0" />
        <mxCell id="c7CVHGiVmJgYd2n3JN1E-3" value="Source" style="rounded=0;whiteSpace=wrap;html=1;fillColor=#dae8fc;strokeColor=#6c8ebf;verticalAlign=bottom;labelPosition=center;verticalLabelPosition=top;align=center;" vertex="1" parent="1">
          <mxGeometry x="110" y="19" width="90" height="47.5" as="geometry" />
        </mxCell>
        <mxCell id="c7CVHGiVmJgYd2n3JN1E-6" value="periodic&lt;div&gt;timer&lt;/div&gt;" style="html=1;verticalLabelPosition=bottom;align=center;labelBackgroundColor=#ffffff;verticalAlign=top;strokeWidth=2;strokeColor=#000000;shadow=0;dashed=0;shape=mxgraph.ios7.icons.alarm_clock;fontSize=10;" vertex="1" parent="1">
          <mxGeometry x="20" y="27.75" width="27" height="30" as="geometry" />
        </mxCell>
        <mxCell id="c7CVHGiVmJgYd2n3JN1E-9" value="buffer" style="rounded=1;whiteSpace=wrap;html=1;verticalAlign=bottom;labelPosition=center;verticalLabelPosition=top;align=left;" vertex="1" parent="1">
          <mxGeometry x="106" y="109" width="100" height="30" as="geometry" />
        </mxCell>
        <mxCell id="c7CVHGiVmJgYd2n3JN1E-10" value="" style="rounded=0;whiteSpace=wrap;html=1;" vertex="1" parent="1">
          <mxGeometry x="116" y="114" width="20" height="20" as="geometry" />
        </mxCell>
        <mxCell id="c7CVHGiVmJgYd2n3JN1E-11" value="measurements" style="rounded=0;whiteSpace=wrap;html=1;fillColor=#fa6800;strokeColor=#C73500;fontColor=#E98425;labelPosition=center;verticalLabelPosition=bottom;align=center;verticalAlign=top;" vertex="1" parent="1">
          <mxGeometry x="146" y="114" width="20" height="20" as="geometry" />
        </mxCell>
        <mxCell id="c7CVHGiVmJgYd2n3JN1E-12" value="" style="endArrow=classic;html=1;rounded=0;entryX=0.5;entryY=0;entryDx=0;entryDy=0;curved=1;fillColor=#fa6800;strokeColor=#C73500;flowAnimation=0;" edge="1" parent="1">
          <mxGeometry width="50" height="50" relative="1" as="geometry">
            <mxPoint x="155" y="60" as="sourcePoint" />
            <mxPoint x="156" y="117" as="targetPoint" />
            <Array as="points">
              <mxPoint x="171" y="89" />
            </Array>
          </mxGeometry>
        </mxCell>
        <mxCell id="c7CVHGiVmJgYd2n3JN1E-13" value="" style="endArrow=classic;html=1;rounded=0;" edge="1" parent="1">
          <mxGeometry width="50" height="50" relative="1" as="geometry">
            <mxPoint x="54" y="43" as="sourcePoint" />
            <mxPoint x="104" y="43" as="targetPoint" />
          </mxGeometry>
        </mxCell>
        <mxCell id="c7CVHGiVmJgYd2n3JN1E-15" value="triggers" style="edgeLabel;html=1;align=center;verticalAlign=middle;resizable=0;points=[];fontSize=8;" vertex="1" connectable="0" parent="c7CVHGiVmJgYd2n3JN1E-13">
          <mxGeometry x="0.12" y="-1" relative="1" as="geometry">
            <mxPoint x="-5" y="-9" as="offset" />
          </mxGeometry>
        </mxCell>
        <mxCell id="c7CVHGiVmJgYd2n3JN1E-19" value="" style="verticalLabelPosition=bottom;verticalAlign=top;html=1;shape=mxgraph.basic.flash" vertex="1" parent="1">
          <mxGeometry x="57" y="29" width="5" height="10" as="geometry" />
        </mxCell>
      </root>
    </mxGraphModel>
  </diagram>
</mxfile>
